<?xml version="1.0" standalone="no"?>
<!DOCTYPE svg PUBLIC "-//W3C//DTD SVG 20010904//EN"
 "http://www.w3.org/TR/2001/REC-SVG-20010904/DTD/svg10.dtd">
<svg version="1.0" xmlns="http://www.w3.org/2000/svg"
 width="1080.000000pt" height="540.000000pt" viewBox="0 0 1080.000000 540.000000"
 preserveAspectRatio="xMidYMid meet">

<g transform="translate(0.000000,540.000000) scale(0.100000,-0.100000)"
fill="#000000" stroke="none">
<path d="M1718 3756 c-262 -47 -486 -178 -649 -383 -331 -415 -293 -1015 88
-1384 131 -127 281 -215 453 -265 85 -24 225 -45 235 -35 3 2 5 370 5 818 0
873 0 866 -50 893 -25 13 -66 16 -98 6 -19 -6 -181 -195 -628 -730 -115 -139
-111 -141 -113 51 -1 171 21 268 94 415 238 475 831 655 1289 393 254 -145
413 -377 462 -675 65 -394 -158 -805 -530 -975 -39 -18 -81 -36 -93 -39 l-23
-7 0 280 c0 155 3 281 7 281 5 0 42 -36 84 -80 73 -77 78 -80 121 -80 55 0 94
31 104 84 8 48 -6 68 -178 249 l-138 144 0 148 c0 80 4 145 9 143 4 -1 70 -77
146 -168 181 -216 203 -239 241 -246 74 -14 140 64 112 133 -7 18 -134 177
-281 353 -285 340 -293 347 -362 328 -16 -4 -38 -17 -50 -28 -20 -20 -20 -31
-23 -857 l-2 -836 67 6 c151 13 359 97 497 201 402 303 533 858 306 1300 -179
349 -511 559 -900 571 -78 3 -154 -1 -202 -9z m-78 -893 l0 -148 -146 -155
c-164 -174 -182 -202 -160 -254 18 -44 51 -66 99 -66 36 0 47 8 123 82 l84 82
0 -282 c0 -250 -2 -282 -16 -282 -27 0 -146 51 -218 94 -121 72 -280 239 -345
364 -11 22 6 45 276 368 158 189 291 344 295 344 5 0 8 -66 8 -147z"/>
<path d="M5340 3428 l0 -221 -22 20 c-52 47 -88 58 -193 58 -84 0 -107 -4
-147 -23 -155 -77 -241 -253 -210 -434 15 -86 60 -175 115 -224 115 -104 305
-124 417 -43 l40 29 0 -30 0 -30 100 0 100 0 0 560 0 560 -100 0 -100 0 0
-222z m-122 -334 c163 -34 178 -323 19 -383 -43 -17 -117 -13 -164 8 -80 37
-121 146 -94 249 15 55 75 116 127 129 38 10 52 10 112 -3z"/>
<path d="M8730 3428 l0 -221 -22 20 c-52 47 -88 58 -193 58 -90 0 -105 -3
-153 -28 -114 -60 -181 -155 -204 -285 -22 -132 26 -288 113 -367 117 -105
307 -125 419 -44 l40 29 0 -30 0 -30 100 0 100 0 0 560 0 560 -100 0 -100 0 0
-222z m-65 -362 c116 -89 93 -306 -38 -355 -82 -31 -188 1 -234 70 -25 37 -28
52 -28 120 0 70 3 81 30 120 44 62 85 81 166 77 54 -3 73 -9 104 -32z"/>
<path d="M4449 3602 c-26 -23 -33 -38 -37 -80 -4 -49 -2 -54 31 -87 30 -30 42
-35 80 -35 54 0 91 26 107 76 38 113 -94 204 -181 126z"/>
<path d="M6962 3602 c-80 -75 -33 -202 75 -202 38 0 50 5 80 35 33 33 35 38
31 87 -4 42 -11 57 -37 80 -44 39 -107 39 -149 0z"/>
<path d="M3682 3603 c-7 -13 -393 -967 -429 -1060 -4 -10 21 -13 105 -13 l110
0 38 100 39 100 226 0 226 0 38 -100 37 -100 113 0 113 0 -218 543 -219 542
-85 3 c-73 2 -86 0 -94 -15z m171 -495 l75 -198 -154 0 c-85 0 -154 4 -154 8
0 7 118 319 140 371 6 13 12 22 15 20 2 -2 37 -93 78 -201z"/>
<path d="M6050 3075 l0 -545 105 0 105 0 0 220 0 220 250 0 250 0 0 95 0 95
-247 2 -248 3 -3 133 -3 132 266 0 265 0 0 95 0 95 -370 0 -370 0 0 -545z"/>
<path d="M7626 3270 c-27 -11 -59 -29 -72 -41 l-23 -21 -3 33 -3 34 -102 3
-103 3 0 -376 0 -375 105 0 104 0 3 251 3 251 37 33 c76 70 194 51 237 -39 19
-39 21 -61 21 -269 l0 -227 101 0 100 0 -3 278 -3 277 -31 55 c-34 61 -105
121 -164 139 -56 17 -148 13 -204 -9z"/>
<path d="M9319 3267 c-102 -43 -173 -110 -218 -206 -23 -49 -26 -68 -26 -161
0 -93 3 -112 27 -162 94 -202 354 -287 563 -184 39 19 80 45 93 58 l22 24 -59
58 -58 57 -38 -25 c-95 -65 -217 -61 -295 10 -21 19 -43 48 -49 64 l-10 30
277 2 277 3 0 95 c0 81 -4 103 -27 151 -35 76 -85 129 -160 170 -58 30 -72 34
-163 36 -87 3 -107 1 -156 -20z m229 -161 c36 -19 58 -44 77 -89 l15 -37 -184
0 c-178 0 -184 1 -179 20 7 28 63 87 98 105 38 19 137 19 173 1z"/>
<path d="M10244 3266 c-28 -13 -55 -30 -60 -37 -6 -10 -10 -5 -14 16 l-5 30
-103 3 -102 3 0 -376 0 -375 105 0 104 0 3 249 3 249 25 28 c28 30 78 54 113
54 12 0 40 -9 61 -19 l37 -20 33 37 c100 112 97 108 78 125 -65 59 -190 74
-278 33z"/>
<path d="M4420 2905 l0 -375 105 0 105 0 -2 373 -3 372 -102 3 -103 3 0 -376z"/>
<path d="M6937 3273 c-4 -3 -7 -172 -7 -375 l0 -368 105 0 105 0 0 375 0 375
-98 0 c-54 0 -102 -3 -105 -7z"/>
<path d="M4138 2178 c8 -8 12 -63 12 -180 0 -148 -2 -168 -17 -177 -14 -8 -2
-10 47 -10 36 1 57 3 48 6 -23 6 -32 58 -25 150 4 51 11 82 24 96 l18 22 -22
-19 -23 -19 0 71 0 72 -37 0 c-29 0 -34 -3 -25 -12z"/>
<path d="M4470 2171 c11 -22 14 -320 2 -337 -4 -6 -14 -14 -22 -17 -8 -3 6 -6
33 -6 45 -1 47 0 48 27 1 29 1 147 0 275 l-1 77 -35 0 c-32 0 -35 -2 -25 -19z"/>
<path d="M5769 2176 c7 -9 11 -63 10 -157 -1 -233 -7 -209 49 -208 26 1 40 3
31 6 -25 6 -29 33 -29 211 l0 162 -36 0 c-30 0 -34 -3 -25 -14z"/>
<path d="M7248 2183 c9 -3 12 -49 12 -179 0 -172 0 -175 -22 -184 -17 -6 -5
-9 47 -9 52 0 66 2 53 10 -16 9 -18 29 -18 189 l0 180 -42 -1 c-24 0 -37 -3
-30 -6z"/>
<path d="M3248 2163 c9 -3 12 -48 12 -173 0 -152 -2 -169 -17 -173 -10 -3 5
-5 32 -6 l50 -1 -3 180 -3 180 -42 -1 c-23 0 -36 -3 -29 -6z"/>
<path d="M3409 2158 c42 -23 61 -59 67 -129 8 -77 -9 -159 -36 -184 -10 -9
-31 -20 -46 -25 -27 -8 -28 -8 -5 -9 14 -1 44 8 67 20 55 26 84 82 84 163 0
95 -45 159 -123 172 -31 5 -31 5 -8 -8z"/>
<path d="M6053 2159 c15 -9 17 -28 17 -170 0 -156 0 -160 -22 -169 -17 -6 -5
-9 47 -9 52 0 66 2 53 10 -16 9 -18 29 -18 179 l0 170 -47 0 c-38 -1 -44 -3
-30 -11z"/>
<path d="M6204 2147 c21 -21 26 -36 26 -74 0 -71 -9 -94 -44 -109 -19 -8 -24
-13 -13 -14 30 0 84 27 101 51 9 13 16 42 16 66 0 52 -30 90 -78 99 l-34 7 26
-26z"/>
<path d="M3660 2077 c-27 -9 -35 -17 -35 -37 0 -18 6 -26 23 -28 17 -3 22 1
22 19 0 12 7 31 17 41 19 21 19 21 -27 5z"/>
<path d="M3734 2077 c15 -11 17 -27 14 -124 -2 -61 0 -109 5 -106 4 2 7 -5 7
-16 0 -18 6 -21 43 -20 23 1 34 3 25 6 -16 4 -18 18 -18 103 0 119 -8 144 -51
159 -41 14 -47 14 -25 -2z"/>
<path d="M3998 2075 c13 -9 22 -27 22 -41 0 -32 33 -30 38 2 4 25 -12 39 -53
48 -30 7 -30 7 -7 -9z"/>
<path d="M4283 2071 c27 -22 27 -24 27 -142 l0 -119 47 0 c39 0 44 2 31 13
-13 9 -17 34 -20 114 -3 116 -15 137 -78 149 l-35 7 28 -22z"/>
<path d="M4612 2075 c35 -20 41 -44 37 -151 -3 -71 -7 -88 -24 -101 -19 -14
-19 -14 10 -11 20 2 36 14 53 38 21 30 23 44 20 107 -3 62 -7 77 -28 98 -14
13 -41 27 -60 30 l-35 6 27 -16z"/>
<path d="M4907 2079 c32 -17 46 -69 41 -154 -2 -54 -8 -79 -22 -94 -18 -19
-18 -21 -2 -21 32 0 74 53 81 103 13 85 -26 155 -95 171 -24 6 -24 6 -3 -5z"/>
<path d="M5123 2079 c-48 -14 -57 -60 -13 -72 16 -4 20 0 20 17 0 12 7 32 16
44 8 12 14 22 12 21 -2 0 -17 -5 -35 -10z"/>
<path d="M5195 2077 c18 -13 20 -29 22 -124 1 -59 2 -116 2 -125 1 -14 10 -18
44 -18 33 1 38 3 25 11 -15 8 -18 26 -18 114 0 92 -3 108 -20 125 -11 11 -24
20 -29 20 -5 0 -18 3 -28 6 -16 6 -15 5 2 -9z"/>
<path d="M5474 2074 c-10 -8 -13 -13 -6 -9 17 9 42 -13 42 -36 0 -20 8 -23 34
-13 22 9 20 51 -3 64 -27 14 -44 13 -67 -6z"/>
<path d="M5660 2077 c-73 -36 -81 -219 -12 -256 23 -12 64 -15 46 -3 -24 16
-34 54 -33 129 1 91 6 110 40 129 21 12 22 13 4 13 -11 1 -31 -5 -45 -12z"/>
<path d="M6400 2077 c-27 -9 -35 -17 -35 -37 0 -18 6 -26 23 -28 17 -3 22 1
22 19 0 12 7 31 17 41 19 21 19 21 -27 5z"/>
<path d="M6474 2077 c15 -11 17 -27 14 -124 -2 -61 0 -109 5 -106 4 2 7 -5 7
-16 0 -18 6 -21 43 -20 23 1 34 3 25 6 -16 4 -18 18 -18 103 0 119 -8 144 -51
159 -41 14 -47 14 -25 -2z"/>
<path d="M6785 2079 c33 -20 35 -29 35 -151 l0 -118 47 0 c39 0 44 2 31 13
-13 9 -17 34 -20 114 -3 116 -15 138 -78 148 -31 6 -33 5 -15 -6z"/>
<path d="M7100 2070 c18 -18 24 -44 23 -102 0 -13 8 -18 29 -18 24 0 28 4 28
30 0 44 -19 77 -55 95 -44 20 -49 19 -25 -5z"/>
<path d="M3912 2064 c-15 -10 -22 -25 -22 -47 0 -43 6 -50 75 -89 65 -37 81
-70 50 -102 -15 -14 -15 -16 -1 -16 26 0 56 38 56 71 0 45 -14 63 -62 84 -24
10 -51 25 -60 33 -21 17 -23 53 -6 70 17 17 -4 15 -30 -4z"/>
<path d="M4799 2051 c-29 -29 -35 -55 -29 -136 4 -56 42 -105 81 -105 7 0 5 8
-7 21 -16 18 -19 37 -19 114 0 77 3 96 19 114 18 19 18 21 2 21 -10 0 -31 -13
-47 -29z"/>
<path d="M5368 2068 c8 -8 12 -50 12 -125 0 -96 -2 -113 -17 -122 -14 -8 -2
-10 47 -10 51 0 61 2 47 10 -16 10 -18 24 -17 117 2 155 6 142 -42 142 -33 0
-39 -3 -30 -12z"/>
<path d="M6643 2069 c15 -9 17 -26 17 -124 0 -98 -2 -115 -17 -124 -14 -8 -2
-10 47 -10 36 1 57 3 47 6 -16 4 -18 16 -15 119 2 63 0 114 -4 114 -5 0 -8 7
-8 15 0 11 -11 15 -42 15 -34 -1 -39 -3 -25 -11z"/>
<path d="M7000 2060 c-58 -58 -51 -190 11 -234 38 -26 54 -20 30 10 -17 22
-21 41 -21 108 0 51 5 91 14 109 13 23 13 27 0 27 -8 0 -23 -9 -34 -20z"/>
<path d="M3644 1946 c-71 -31 -55 -136 21 -136 27 0 28 1 10 14 -14 10 -19 25
-19 55 2 48 16 68 52 74 26 4 26 4 -3 5 -16 1 -44 -5 -61 -12z"/>
<path d="M5115 1949 c-37 -11 -55 -34 -55 -71 0 -36 32 -68 68 -68 23 1 24 2
10 11 -13 7 -18 22 -18 52 0 52 9 65 46 77 27 8 27 8 4 8 -14 0 -38 -4 -55 -9z"/>
<path d="M6384 1946 c-71 -31 -55 -136 21 -136 27 0 28 1 10 14 -14 10 -19 25
-19 55 2 48 16 68 52 74 26 4 26 4 -3 5 -16 1 -44 -5 -61 -12z"/>
<path d="M3886 1875 c-7 -20 3 -44 25 -55 31 -17 41 -12 25 12 -9 12 -16 30
-16 40 0 22 -26 24 -34 3z"/>
<path d="M7142 1841 c-12 -17 -19 -31 -14 -31 14 0 44 38 40 50 -2 6 -14 -3
-26 -19z"/>
</g>
</svg>
