<?xml version="1.0" encoding="UTF-8"?>
<svg xmlns="http://www.w3.org/2000/svg" xmlns:xlink="http://www.w3.org/1999/xlink" width="24px" height="24px" viewBox="0 0 24 24" version="1.1">
<g id="surface1">
<path style=" stroke:none;fill-rule:evenodd;fill:rgb(0%,0%,0%);fill-opacity:1;" d="M 11.953125 22.277344 C 11.746094 22.273438 11.445312 22.261719 11.285156 22.246094 C 11.121094 22.230469 10.8125 22.191406 10.601562 22.15625 C 10.386719 22.117188 10.019531 22.042969 9.785156 21.984375 C 9.550781 21.925781 9.257812 21.84375 9.132812 21.796875 C 9.007812 21.753906 8.757812 21.648438 8.570312 21.566406 C 8.382812 21.484375 8.101562 21.335938 7.941406 21.242188 C 7.78125 21.144531 7.539062 20.984375 7.398438 20.882812 C 7.261719 20.785156 7.023438 20.578125 6.871094 20.425781 C 6.714844 20.269531 6.515625 20.046875 6.421875 19.921875 C 6.332031 19.800781 6.175781 19.558594 6.082031 19.390625 C 5.984375 19.21875 5.867188 18.964844 5.816406 18.828125 C 5.765625 18.691406 5.695312 18.445312 5.660156 18.28125 C 5.625 18.117188 5.585938 17.835938 5.574219 17.65625 C 5.5625 17.453125 5.570312 17.214844 5.59375 17.03125 C 5.613281 16.867188 5.664062 16.617188 5.707031 16.472656 C 5.75 16.332031 5.835938 16.105469 5.902344 15.972656 C 5.964844 15.839844 6.089844 15.625 6.171875 15.5 C 6.257812 15.371094 6.460938 15.132812 6.625 14.964844 C 6.789062 14.800781 7.058594 14.574219 7.226562 14.457031 C 7.394531 14.339844 7.65625 14.179688 7.816406 14.09375 C 7.972656 14.011719 8.089844 13.9375 8.074219 13.929688 C 8.058594 13.921875 7.960938 13.90625 7.859375 13.894531 C 7.757812 13.882812 7.585938 13.859375 7.476562 13.835938 C 7.285156 13.800781 7.285156 13.800781 7.113281 13.914062 C 7.023438 13.976562 6.832031 14.082031 6.691406 14.152344 C 6.554688 14.222656 6.332031 14.3125 6.195312 14.351562 C 5.984375 14.414062 5.878906 14.421875 5.421875 14.421875 C 4.960938 14.421875 4.859375 14.414062 4.644531 14.351562 C 4.507812 14.3125 4.269531 14.214844 4.117188 14.136719 C 3.9375 14.042969 3.761719 13.917969 3.617188 13.78125 C 3.46875 13.644531 3.34375 13.488281 3.257812 13.335938 C 3.171875 13.1875 3.09375 12.992188 3.042969 12.792969 C 2.984375 12.566406 2.964844 12.398438 2.960938 12.15625 C 2.960938 11.929688 2.976562 11.769531 3.011719 11.640625 C 3.042969 11.539062 3.117188 11.355469 3.179688 11.234375 C 3.257812 11.085938 3.375 10.9375 3.53125 10.78125 C 3.667969 10.648438 3.875 10.484375 4.019531 10.398438 C 4.15625 10.320312 4.394531 10.210938 4.546875 10.160156 C 4.703125 10.109375 4.96875 10.050781 5.144531 10.03125 C 5.386719 10 5.527344 10 5.769531 10.027344 C 5.9375 10.046875 6.164062 10.085938 6.265625 10.113281 C 6.367188 10.136719 6.578125 10.222656 6.734375 10.296875 C 6.890625 10.375 7.105469 10.511719 7.21875 10.601562 C 7.335938 10.699219 7.484375 10.863281 7.578125 11 C 7.667969 11.132812 7.769531 11.332031 7.808594 11.453125 C 7.855469 11.601562 7.882812 11.769531 7.886719 11.960938 C 7.890625 12.121094 7.902344 12.253906 7.910156 12.261719 C 7.914062 12.269531 8.132812 12.289062 8.390625 12.308594 C 8.648438 12.328125 8.984375 12.367188 9.136719 12.394531 C 9.414062 12.445312 9.414062 12.445312 9.621094 12.332031 C 9.738281 12.273438 9.914062 12.199219 10.015625 12.171875 C 10.117188 12.148438 10.273438 12.125 10.359375 12.125 C 10.445312 12.125 10.613281 12.148438 10.730469 12.171875 C 10.847656 12.195312 11.039062 12.261719 11.15625 12.316406 C 11.371094 12.414062 11.371094 12.414062 11.726562 12.347656 C 11.917969 12.3125 12.210938 12.265625 12.375 12.25 C 12.539062 12.234375 12.851562 12.21875 13.070312 12.21875 C 13.378906 12.21875 13.46875 12.210938 13.46875 12.175781 C 13.46875 12.15625 13.359375 12.011719 13.226562 11.855469 C 13.09375 11.703125 12.941406 11.507812 12.886719 11.421875 C 12.832031 11.335938 12.753906 11.1875 12.71875 11.09375 C 12.683594 11 12.601562 10.734375 12.542969 10.503906 C 12.484375 10.273438 12.421875 10.0625 12.40625 10.035156 C 12.390625 10.003906 12.25 9.949219 12.039062 9.894531 C 11.820312 9.839844 11.554688 9.738281 11.3125 9.621094 C 11.101562 9.519531 10.828125 9.371094 10.707031 9.289062 C 10.585938 9.207031 10.375 9.035156 10.238281 8.90625 C 10.101562 8.777344 9.90625 8.5625 9.804688 8.425781 C 9.699219 8.289062 9.550781 8.050781 9.46875 7.894531 C 9.386719 7.738281 9.28125 7.496094 9.242188 7.359375 C 9.199219 7.222656 9.144531 7 9.125 6.867188 C 9.097656 6.710938 9.089844 6.476562 9.101562 6.226562 C 9.113281 6.007812 9.148438 5.632812 9.183594 5.390625 C 9.21875 5.148438 9.292969 4.636719 9.34375 4.25 C 9.414062 3.765625 9.4375 3.503906 9.421875 3.40625 C 9.40625 3.328125 9.398438 3.195312 9.398438 3.105469 C 9.398438 3.011719 9.425781 2.898438 9.460938 2.824219 C 9.496094 2.757812 9.578125 2.652344 9.648438 2.589844 C 9.742188 2.5 9.777344 2.4375 9.808594 2.296875 C 9.839844 2.160156 9.878906 2.09375 9.972656 2 C 10.039062 1.9375 10.1875 1.835938 10.304688 1.773438 C 10.421875 1.714844 10.628906 1.628906 10.765625 1.582031 C 10.902344 1.539062 11.101562 1.480469 11.207031 1.453125 C 11.3125 1.429688 11.46875 1.40625 11.558594 1.40625 C 11.6875 1.40625 11.738281 1.425781 11.847656 1.507812 C 11.921875 1.566406 12.03125 1.679688 12.085938 1.761719 C 12.140625 1.84375 12.207031 1.984375 12.234375 2.070312 C 12.261719 2.160156 12.28125 2.320312 12.28125 2.429688 C 12.28125 2.539062 12.257812 2.679688 12.234375 2.742188 C 12.207031 2.808594 12.148438 2.898438 12.101562 2.945312 C 12.054688 2.996094 11.953125 3.074219 11.875 3.125 C 11.796875 3.171875 11.621094 3.25 11.480469 3.292969 C 11.339844 3.335938 11.101562 3.386719 10.949219 3.40625 C 10.796875 3.425781 10.585938 3.472656 10.476562 3.507812 C 10.367188 3.542969 10.277344 3.59375 10.269531 3.621094 C 10.261719 3.648438 10.226562 3.832031 10.191406 4.03125 C 10.15625 4.230469 10.082031 4.691406 10.027344 5.0625 C 9.945312 5.605469 9.925781 5.835938 9.925781 6.265625 C 9.921875 6.785156 9.925781 6.804688 10.019531 7.070312 C 10.074219 7.21875 10.175781 7.441406 10.25 7.5625 C 10.320312 7.683594 10.464844 7.875 10.570312 7.992188 C 10.679688 8.105469 10.867188 8.277344 10.988281 8.375 C 11.109375 8.472656 11.355469 8.625 11.53125 8.714844 C 11.707031 8.804688 11.945312 8.914062 12.0625 8.953125 C 12.183594 8.992188 12.394531 9.050781 12.539062 9.082031 C 12.734375 9.125 12.933594 9.140625 13.375 9.140625 C 13.820312 9.140625 14.015625 9.125 14.21875 9.082031 C 14.363281 9.050781 14.617188 8.976562 14.777344 8.917969 C 14.941406 8.863281 15.222656 8.726562 15.410156 8.621094 C 15.59375 8.515625 15.863281 8.328125 16.003906 8.207031 C 16.148438 8.082031 16.332031 7.898438 16.414062 7.796875 C 16.5 7.695312 16.625 7.511719 16.695312 7.394531 C 16.761719 7.273438 16.851562 7.097656 16.890625 7.003906 C 16.929688 6.90625 16.984375 6.71875 17.011719 6.585938 C 17.039062 6.453125 17.0625 6.195312 17.0625 6.003906 C 17.0625 5.816406 17.042969 5.5625 17.015625 5.441406 C 16.992188 5.320312 16.910156 5.070312 16.832031 4.882812 C 16.757812 4.699219 16.550781 4.238281 16.371094 3.863281 C 16.191406 3.488281 16.007812 3.140625 15.964844 3.089844 C 15.890625 3.011719 15.863281 3 15.792969 3.023438 C 15.742188 3.035156 15.625 3.046875 15.53125 3.042969 C 15.4375 3.039062 15.203125 3.007812 15.015625 2.96875 C 14.828125 2.933594 14.605469 2.882812 14.523438 2.855469 C 14.425781 2.824219 14.339844 2.765625 14.269531 2.683594 C 14.203125 2.605469 14.144531 2.492188 14.125 2.398438 C 14.101562 2.304688 14.09375 2.148438 14.101562 2.015625 C 14.113281 1.886719 14.148438 1.722656 14.1875 1.636719 C 14.222656 1.554688 14.289062 1.441406 14.332031 1.382812 C 14.378906 1.324219 14.457031 1.25 14.511719 1.214844 C 14.566406 1.183594 14.664062 1.15625 14.734375 1.15625 C 14.804688 1.15625 14.972656 1.175781 15.109375 1.203125 C 15.246094 1.226562 15.449219 1.273438 15.5625 1.308594 C 15.675781 1.339844 15.804688 1.382812 15.847656 1.402344 C 15.894531 1.417969 15.980469 1.476562 16.042969 1.53125 C 16.109375 1.59375 16.167969 1.679688 16.1875 1.753906 C 16.207031 1.820312 16.234375 1.875 16.25 1.875 C 16.265625 1.875 16.332031 1.921875 16.394531 1.976562 C 16.457031 2.03125 16.535156 2.132812 16.566406 2.203125 C 16.597656 2.273438 16.625 2.359375 16.625 2.394531 C 16.625 2.429688 16.835938 2.886719 17.089844 3.410156 C 17.347656 3.933594 17.601562 4.46875 17.65625 4.605469 C 17.710938 4.742188 17.78125 4.96875 17.816406 5.105469 C 17.847656 5.246094 17.890625 5.496094 17.90625 5.667969 C 17.925781 5.867188 17.925781 6.105469 17.90625 6.359375 C 17.886719 6.570312 17.84375 6.851562 17.808594 6.988281 C 17.773438 7.125 17.6875 7.367188 17.617188 7.53125 C 17.546875 7.695312 17.386719 7.976562 17.269531 8.15625 C 17.128906 8.367188 16.933594 8.601562 16.71875 8.8125 C 16.539062 8.992188 16.285156 9.214844 16.15625 9.300781 C 16.027344 9.390625 15.804688 9.519531 15.667969 9.59375 C 15.527344 9.664062 15.300781 9.761719 15.167969 9.808594 C 14.921875 9.894531 14.921875 9.894531 14.898438 10.03125 C 14.886719 10.109375 14.847656 10.332031 14.816406 10.53125 C 14.785156 10.730469 14.726562 10.96875 14.691406 11.070312 C 14.652344 11.164062 14.550781 11.339844 14.46875 11.457031 C 14.382812 11.574219 14.3125 11.691406 14.3125 11.714844 C 14.3125 11.738281 14.414062 11.859375 14.542969 11.980469 C 14.667969 12.101562 14.847656 12.25 14.941406 12.304688 C 15.039062 12.363281 15.324219 12.492188 15.582031 12.597656 C 15.835938 12.699219 16.160156 12.847656 16.296875 12.921875 C 16.433594 12.996094 16.671875 13.144531 16.824219 13.253906 C 16.972656 13.359375 17.222656 13.566406 17.375 13.710938 C 17.527344 13.851562 17.75 14.101562 17.871094 14.257812 C 17.992188 14.417969 18.15625 14.660156 18.234375 14.796875 C 18.3125 14.933594 18.429688 15.1875 18.5 15.363281 C 18.566406 15.535156 18.660156 15.816406 18.703125 15.988281 C 18.765625 16.230469 18.789062 16.402344 18.804688 16.785156 C 18.816406 17.164062 18.808594 17.339844 18.765625 17.59375 C 18.738281 17.769531 18.660156 18.070312 18.59375 18.261719 C 18.527344 18.453125 18.425781 18.714844 18.367188 18.84375 C 18.304688 18.972656 18.199219 19.175781 18.125 19.296875 C 18.050781 19.417969 17.902344 19.628906 17.796875 19.765625 C 17.6875 19.902344 17.476562 20.136719 17.324219 20.28125 C 17.171875 20.429688 16.984375 20.601562 16.90625 20.660156 C 16.828125 20.722656 16.640625 20.859375 16.484375 20.960938 C 16.328125 21.0625 16.125 21.1875 16.03125 21.242188 C 15.9375 21.292969 15.675781 21.417969 15.453125 21.515625 C 15.230469 21.613281 14.925781 21.738281 14.78125 21.785156 C 14.636719 21.835938 14.324219 21.925781 14.089844 21.984375 C 13.855469 22.042969 13.488281 22.117188 13.277344 22.152344 C 13.0625 22.1875 12.765625 22.230469 12.609375 22.25 C 12.453125 22.265625 12.160156 22.277344 11.953125 22.277344 Z M 12.144531 20.855469 C 12.417969 20.847656 12.765625 20.8125 13.050781 20.765625 C 13.308594 20.722656 13.675781 20.644531 13.871094 20.59375 C 14.066406 20.539062 14.355469 20.445312 14.511719 20.386719 C 14.667969 20.324219 14.9375 20.203125 15.109375 20.117188 C 15.28125 20.03125 15.519531 19.898438 15.640625 19.820312 C 15.761719 19.742188 15.949219 19.609375 16.0625 19.523438 C 16.175781 19.433594 16.347656 19.285156 16.449219 19.191406 C 16.546875 19.09375 16.710938 18.902344 16.8125 18.765625 C 16.910156 18.628906 17.035156 18.4375 17.089844 18.339844 C 17.144531 18.242188 17.230469 18.046875 17.285156 17.902344 C 17.335938 17.757812 17.398438 17.539062 17.425781 17.410156 C 17.449219 17.285156 17.46875 17.070312 17.46875 16.9375 C 17.46875 16.800781 17.441406 16.550781 17.410156 16.382812 C 17.375 16.210938 17.300781 15.945312 17.242188 15.789062 C 17.183594 15.628906 17.066406 15.386719 16.980469 15.246094 C 16.894531 15.105469 16.699219 14.855469 16.539062 14.6875 C 16.382812 14.523438 16.148438 14.3125 16.023438 14.226562 C 15.898438 14.140625 15.71875 14.03125 15.625 13.984375 C 15.53125 13.9375 15.3125 13.84375 15.136719 13.777344 C 14.964844 13.714844 14.710938 13.632812 14.574219 13.597656 C 14.4375 13.5625 14.203125 13.511719 14.046875 13.488281 C 13.890625 13.460938 13.59375 13.425781 13.386719 13.40625 C 13.140625 13.386719 12.878906 13.386719 12.652344 13.40625 C 12.457031 13.421875 12.183594 13.457031 12.046875 13.484375 C 11.910156 13.511719 11.753906 13.546875 11.699219 13.566406 C 11.644531 13.582031 11.59375 13.613281 11.585938 13.632812 C 11.578125 13.65625 11.625 13.761719 11.691406 13.875 C 11.800781 14.054688 11.8125 14.09375 11.8125 14.292969 C 11.8125 14.472656 11.796875 14.550781 11.722656 14.703125 C 11.664062 14.828125 11.570312 14.949219 11.449219 15.0625 C 11.347656 15.15625 11.1875 15.273438 11.09375 15.316406 C 11 15.363281 10.84375 15.417969 10.746094 15.4375 C 10.632812 15.460938 10.449219 15.472656 10.246094 15.460938 C 10.03125 15.449219 9.855469 15.421875 9.730469 15.375 C 9.621094 15.339844 9.460938 15.257812 9.371094 15.191406 C 9.28125 15.128906 9.15625 15.015625 9.097656 14.9375 C 9.039062 14.859375 8.972656 14.792969 8.949219 14.785156 C 8.929688 14.78125 8.820312 14.835938 8.710938 14.910156 C 8.605469 14.984375 8.382812 15.148438 8.21875 15.273438 C 8.054688 15.402344 7.839844 15.585938 7.738281 15.683594 C 7.640625 15.78125 7.496094 15.945312 7.421875 16.046875 C 7.347656 16.148438 7.238281 16.335938 7.171875 16.464844 C 7.109375 16.589844 7.03125 16.800781 6.996094 16.929688 C 6.960938 17.082031 6.9375 17.273438 6.9375 17.464844 C 6.9375 17.632812 6.960938 17.851562 6.988281 17.96875 C 7.015625 18.078125 7.097656 18.304688 7.175781 18.464844 C 7.25 18.625 7.375 18.84375 7.449219 18.949219 C 7.523438 19.054688 7.703125 19.253906 7.847656 19.390625 C 7.992188 19.53125 8.273438 19.753906 8.472656 19.886719 C 8.671875 20.019531 8.992188 20.195312 9.179688 20.28125 C 9.371094 20.367188 9.6875 20.484375 9.886719 20.542969 C 10.082031 20.605469 10.382812 20.679688 10.550781 20.714844 C 10.722656 20.746094 10.984375 20.789062 11.140625 20.808594 C 11.296875 20.828125 11.484375 20.851562 11.5625 20.855469 C 11.640625 20.863281 11.902344 20.863281 12.144531 20.855469 Z M 10.445312 14.835938 C 10.558594 14.832031 10.671875 14.808594 10.695312 14.785156 C 10.726562 14.753906 10.699219 14.75 10.5625 14.765625 C 10.453125 14.78125 10.316406 14.769531 10.1875 14.738281 C 10.074219 14.714844 9.980469 14.699219 9.972656 14.703125 C 9.964844 14.710938 10.019531 14.746094 10.097656 14.78125 C 10.203125 14.832031 10.28125 14.84375 10.445312 14.835938 Z M 8.625 14.136719 C 8.652344 14.117188 8.816406 14.039062 8.992188 13.964844 C 9.171875 13.894531 9.308594 13.820312 9.300781 13.800781 C 9.296875 13.78125 9.242188 13.769531 9.1875 13.773438 C 9.128906 13.777344 8.964844 13.839844 8.816406 13.910156 C 8.667969 13.976562 8.511719 14.058594 8.46875 14.085938 C 8.390625 14.140625 8.390625 14.140625 8.484375 14.15625 C 8.539062 14.167969 8.597656 14.160156 8.625 14.136719 Z M 5.09375 13.710938 C 5.421875 13.710938 5.421875 13.710938 5.164062 13.683594 C 5.023438 13.671875 4.800781 13.632812 4.671875 13.59375 C 4.542969 13.558594 4.355469 13.496094 4.253906 13.457031 C 4.15625 13.417969 3.988281 13.328125 3.886719 13.261719 C 3.785156 13.195312 3.683594 13.128906 3.65625 13.117188 C 3.628906 13.101562 3.6875 13.164062 3.78125 13.25 C 3.875 13.335938 4.039062 13.453125 4.144531 13.503906 C 4.253906 13.558594 4.433594 13.625 4.550781 13.65625 C 4.699219 13.695312 4.867188 13.714844 5.09375 13.710938 Z M 6.25 13.546875 C 6.292969 13.535156 6.40625 13.484375 6.5 13.433594 C 6.59375 13.382812 6.742188 13.289062 6.828125 13.226562 C 6.9375 13.144531 7.042969 13.015625 7.175781 12.800781 C 7.28125 12.632812 7.40625 12.414062 7.457031 12.316406 C 7.539062 12.152344 7.546875 12.113281 7.546875 11.78125 C 7.546875 11.425781 7.542969 11.414062 7.429688 11.179688 C 7.34375 11.007812 7.261719 10.894531 7.128906 10.773438 C 7.027344 10.683594 6.847656 10.5625 6.734375 10.503906 C 6.617188 10.445312 6.425781 10.367188 6.304688 10.324219 C 6.183594 10.285156 5.964844 10.234375 5.816406 10.214844 C 5.667969 10.195312 5.425781 10.1875 5.28125 10.199219 C 5.132812 10.207031 4.886719 10.253906 4.734375 10.296875 C 4.582031 10.34375 4.359375 10.429688 4.242188 10.488281 C 4.128906 10.550781 3.9375 10.679688 3.824219 10.777344 C 3.707031 10.875 3.554688 11.039062 3.480469 11.144531 C 3.410156 11.25 3.320312 11.421875 3.28125 11.519531 C 3.226562 11.664062 3.210938 11.769531 3.210938 12 C 3.207031 12.230469 3.222656 12.335938 3.277344 12.46875 C 3.3125 12.566406 3.363281 12.667969 3.382812 12.699219 C 3.421875 12.75 3.46875 12.738281 4.070312 12.535156 C 4.425781 12.414062 4.730469 12.308594 4.75 12.296875 C 4.765625 12.285156 4.78125 12.253906 4.78125 12.222656 C 4.78125 12.195312 4.746094 12.101562 4.699219 12.019531 C 4.632812 11.890625 4.621094 11.835938 4.628906 11.671875 C 4.640625 11.523438 4.664062 11.445312 4.726562 11.347656 C 4.773438 11.277344 4.871094 11.175781 4.941406 11.125 C 5.011719 11.074219 5.144531 11.019531 5.234375 11 C 5.355469 10.976562 5.453125 10.972656 5.578125 10.996094 C 5.671875 11.015625 5.78125 11.046875 5.820312 11.066406 C 5.859375 11.085938 5.9375 11.136719 5.996094 11.179688 C 6.054688 11.222656 6.125 11.316406 6.160156 11.386719 C 6.199219 11.476562 6.21875 11.589844 6.21875 11.769531 C 6.21875 11.90625 6.199219 12.089844 6.171875 12.175781 C 6.148438 12.261719 6.085938 12.367188 6.039062 12.410156 C 5.992188 12.457031 5.921875 12.507812 5.882812 12.527344 C 5.84375 12.546875 5.8125 12.585938 5.8125 12.617188 C 5.8125 12.644531 5.875 12.773438 5.949219 12.902344 C 6.023438 13.035156 6.125 13.214844 6.167969 13.308594 C 6.238281 13.445312 6.246094 13.480469 6.210938 13.523438 C 6.175781 13.566406 6.183594 13.570312 6.25 13.546875 Z M 9.582031 13.523438 C 9.589844 13.515625 9.574219 13.429688 9.550781 13.335938 C 9.519531 13.222656 9.515625 13.125 9.53125 13.050781 C 9.542969 12.992188 9.585938 12.890625 9.625 12.828125 C 9.664062 12.769531 9.742188 12.679688 9.800781 12.636719 C 9.859375 12.589844 9.902344 12.546875 9.894531 12.539062 C 9.882812 12.53125 9.816406 12.558594 9.742188 12.605469 C 9.664062 12.648438 9.566406 12.734375 9.515625 12.796875 C 9.46875 12.859375 9.417969 12.957031 9.402344 13.015625 C 9.382812 13.085938 9.382812 13.167969 9.40625 13.246094 C 9.421875 13.3125 9.46875 13.40625 9.503906 13.449219 C 9.539062 13.496094 9.574219 13.527344 9.582031 13.523438 Z M 10.453125 13.5 C 10.523438 13.5 10.621094 13.472656 10.675781 13.441406 C 10.730469 13.40625 10.808594 13.332031 10.851562 13.277344 C 10.894531 13.21875 10.941406 13.140625 10.953125 13.101562 C 10.964844 13.054688 10.957031 13 10.921875 12.949219 C 10.894531 12.90625 10.804688 12.839844 10.726562 12.804688 C 10.628906 12.761719 10.546875 12.75 10.464844 12.757812 C 10.394531 12.769531 10.292969 12.8125 10.230469 12.859375 C 10.167969 12.90625 10.097656 12.992188 10.074219 13.050781 C 10.035156 13.140625 10.035156 13.171875 10.074219 13.265625 C 10.101562 13.324219 10.167969 13.402344 10.226562 13.4375 C 10.28125 13.472656 10.382812 13.5 10.453125 13.5 Z M 8.835938 13.464844 C 8.964844 13.46875 8.96875 13.464844 9 13.335938 C 9.019531 13.261719 9.070312 13.09375 9.113281 12.957031 C 9.152344 12.824219 9.1875 12.695312 9.1875 12.671875 C 9.1875 12.652344 9.136719 12.625 9.070312 12.613281 C 9.007812 12.605469 8.867188 12.585938 8.761719 12.578125 C 8.585938 12.558594 8.566406 12.5625 8.519531 12.628906 C 8.492188 12.671875 8.4375 12.792969 8.40625 12.902344 C 8.371094 13.011719 8.34375 13.167969 8.34375 13.25 C 8.34375 13.398438 8.347656 13.402344 8.445312 13.417969 C 8.5 13.429688 8.582031 13.441406 8.625 13.449219 C 8.667969 13.453125 8.761719 13.460938 8.835938 13.464844 Z M 8.0625 13.300781 C 8.089844 13.296875 8.121094 13.226562 8.148438 13.097656 C 8.167969 12.988281 8.234375 12.808594 8.296875 12.695312 C 8.355469 12.582031 8.398438 12.480469 8.390625 12.472656 C 8.382812 12.464844 8.339844 12.476562 8.296875 12.5 C 8.242188 12.527344 8.144531 12.535156 7.914062 12.515625 C 7.601562 12.496094 7.601562 12.496094 7.535156 12.582031 C 7.496094 12.628906 7.417969 12.765625 7.355469 12.890625 C 7.292969 13.019531 7.253906 13.132812 7.265625 13.164062 C 7.28125 13.199219 7.339844 13.21875 7.449219 13.234375 C 7.535156 13.242188 7.699219 13.261719 7.8125 13.277344 C 7.925781 13.292969 8.035156 13.304688 8.0625 13.300781 Z M 11.230469 12.875 C 11.269531 12.875 11.316406 12.859375 11.332031 12.84375 C 11.351562 12.824219 11.441406 12.796875 11.535156 12.78125 C 11.625 12.761719 11.757812 12.742188 11.828125 12.730469 C 11.898438 12.71875 11.976562 12.6875 12.007812 12.664062 C 12.042969 12.632812 12.09375 12.625 12.152344 12.636719 C 12.207031 12.644531 12.257812 12.640625 12.269531 12.621094 C 12.28125 12.601562 12.328125 12.59375 12.375 12.605469 C 12.433594 12.617188 12.476562 12.605469 12.5 12.578125 C 12.535156 12.539062 12.515625 12.53125 12.390625 12.53125 C 12.3125 12.53125 12.144531 12.546875 12.023438 12.566406 C 11.898438 12.585938 11.660156 12.632812 11.492188 12.671875 C 11.324219 12.714844 11.175781 12.753906 11.15625 12.765625 C 11.140625 12.773438 11.136719 12.804688 11.144531 12.828125 C 11.15625 12.855469 11.195312 12.875 11.230469 12.875 Z M 5.445312 12.125 C 5.527344 12.125 5.640625 12.101562 5.695312 12.074219 C 5.75 12.046875 5.84375 11.988281 5.898438 11.949219 C 5.953125 11.90625 6 11.859375 6 11.84375 C 6 11.828125 5.90625 11.863281 5.789062 11.921875 C 5.621094 12.007812 5.542969 12.03125 5.394531 12.03125 C 5.296875 12.03125 5.1875 12.015625 5.152344 12 C 5.121094 11.980469 5.097656 11.953125 5.109375 11.9375 C 5.117188 11.925781 5.078125 11.882812 5.023438 11.847656 C 4.96875 11.8125 4.890625 11.761719 4.851562 11.730469 C 4.8125 11.703125 4.78125 11.691406 4.78125 11.707031 C 4.78125 11.722656 4.824219 11.785156 4.875 11.847656 C 4.925781 11.910156 5.042969 12 5.132812 12.042969 C 5.238281 12.097656 5.34375 12.125 5.445312 12.125 Z M 14.117188 11.953125 C 14.128906 11.945312 14.050781 11.847656 13.949219 11.734375 C 13.847656 11.621094 13.65625 11.40625 13.523438 11.257812 C 13.390625 11.105469 13.238281 10.898438 13.1875 10.796875 C 13.140625 10.695312 13.074219 10.488281 13.046875 10.34375 C 13.019531 10.199219 12.980469 10.042969 12.964844 10.003906 C 12.945312 9.960938 12.921875 9.941406 12.90625 9.957031 C 12.890625 9.972656 12.898438 10.089844 12.921875 10.234375 C 12.949219 10.367188 12.996094 10.566406 13.03125 10.671875 C 13.066406 10.78125 13.136719 10.929688 13.183594 11.003906 C 13.234375 11.078125 13.390625 11.277344 13.535156 11.445312 C 13.679688 11.613281 13.867188 11.800781 13.953125 11.859375 C 14.035156 11.917969 14.109375 11.960938 14.117188 11.953125 Z M 5.625 11.714844 C 5.6875 11.71875 5.765625 11.699219 5.796875 11.675781 C 5.839844 11.644531 5.84375 11.621094 5.820312 11.574219 C 5.796875 11.535156 5.796875 11.496094 5.8125 11.46875 C 5.835938 11.433594 5.84375 11.445312 5.84375 11.511719 C 5.84375 11.585938 5.851562 11.59375 5.890625 11.5625 C 5.917969 11.542969 5.9375 11.492188 5.9375 11.453125 C 5.9375 11.414062 5.914062 11.363281 5.882812 11.335938 C 5.851562 11.308594 5.761719 11.265625 5.679688 11.238281 C 5.597656 11.210938 5.484375 11.1875 5.433594 11.1875 C 5.378906 11.1875 5.28125 11.203125 5.214844 11.222656 C 5.148438 11.242188 5.070312 11.289062 5.035156 11.324219 C 5 11.359375 4.964844 11.425781 4.953125 11.46875 C 4.941406 11.515625 4.953125 11.570312 4.976562 11.605469 C 5.007812 11.648438 5.082031 11.667969 5.265625 11.6875 C 5.402344 11.699219 5.566406 11.710938 5.625 11.714844 Z M 13.714844 11.0625 C 13.746094 11.0625 13.800781 11.03125 13.839844 10.988281 C 13.878906 10.949219 13.9375 10.84375 13.96875 10.753906 C 14.011719 10.648438 14.03125 10.515625 14.03125 10.359375 C 14.03125 10.222656 14.015625 10.121094 13.996094 10.105469 C 13.976562 10.09375 13.832031 10.089844 13.675781 10.089844 C 13.519531 10.09375 13.378906 10.109375 13.367188 10.121094 C 13.351562 10.136719 13.359375 10.25 13.375 10.378906 C 13.394531 10.503906 13.4375 10.667969 13.46875 10.742188 C 13.503906 10.816406 13.558594 10.917969 13.59375 10.96875 C 13.632812 11.019531 13.683594 11.0625 13.714844 11.0625 Z M 14.230469 10.90625 C 14.238281 10.90625 14.273438 10.859375 14.308594 10.804688 C 14.34375 10.75 14.398438 10.589844 14.433594 10.453125 C 14.46875 10.316406 14.519531 10.042969 14.546875 9.84375 C 14.578125 9.609375 14.613281 9.457031 14.652344 9.40625 C 14.6875 9.359375 14.863281 9.261719 15.109375 9.152344 C 15.328125 9.050781 15.617188 8.902344 15.753906 8.820312 C 15.890625 8.738281 16.144531 8.554688 16.316406 8.410156 C 16.492188 8.261719 16.742188 8.015625 16.871094 7.859375 C 17.003906 7.699219 17.164062 7.480469 17.226562 7.371094 C 17.292969 7.261719 17.386719 7.066406 17.4375 6.933594 C 17.488281 6.804688 17.558594 6.550781 17.59375 6.371094 C 17.648438 6.109375 17.660156 5.976562 17.648438 5.671875 C 17.640625 5.464844 17.609375 5.183594 17.578125 5.046875 C 17.550781 4.914062 17.476562 4.671875 17.414062 4.515625 C 17.351562 4.363281 17.089844 3.8125 16.835938 3.300781 C 16.582031 2.789062 16.332031 2.304688 16.277344 2.230469 C 16.203125 2.121094 16.164062 2.09375 16.09375 2.09375 C 16.035156 2.09375 15.992188 2.117188 15.96875 2.15625 C 15.941406 2.203125 15.964844 2.273438 16.097656 2.523438 C 16.1875 2.691406 16.4375 3.179688 16.652344 3.609375 C 16.871094 4.039062 17.089844 4.511719 17.132812 4.65625 C 17.179688 4.800781 17.242188 5.027344 17.269531 5.15625 C 17.300781 5.300781 17.320312 5.539062 17.320312 5.78125 C 17.320312 6.097656 17.304688 6.234375 17.238281 6.507812 C 17.195312 6.695312 17.113281 6.945312 17.0625 7.070312 C 17.007812 7.191406 16.886719 7.414062 16.789062 7.5625 C 16.691406 7.707031 16.5 7.941406 16.359375 8.078125 C 16.222656 8.214844 16.011719 8.402344 15.890625 8.496094 C 15.769531 8.585938 15.515625 8.734375 15.328125 8.828125 C 15.140625 8.917969 14.882812 9.03125 14.757812 9.074219 C 14.632812 9.117188 14.386719 9.1875 14.210938 9.222656 C 13.960938 9.273438 13.785156 9.289062 13.390625 9.289062 C 12.972656 9.289062 12.824219 9.273438 12.488281 9.207031 C 12.269531 9.160156 11.957031 9.074219 11.800781 9.011719 C 11.644531 8.953125 11.429688 8.855469 11.324219 8.796875 C 11.222656 8.738281 11.046875 8.625 10.933594 8.542969 C 10.824219 8.460938 10.660156 8.324219 10.570312 8.238281 C 10.476562 8.152344 10.335938 7.988281 10.253906 7.875 C 10.167969 7.765625 10.042969 7.554688 9.972656 7.414062 C 9.902344 7.273438 9.804688 7.035156 9.761719 6.882812 C 9.683594 6.632812 9.675781 6.5625 9.675781 6.109375 C 9.675781 5.726562 9.699219 5.425781 9.777344 4.828125 C 9.832031 4.398438 9.914062 3.84375 9.957031 3.597656 C 9.996094 3.347656 10.03125 3.113281 10.03125 3.070312 C 10.03125 3.023438 10.003906 2.984375 9.953125 2.964844 C 9.894531 2.9375 9.863281 2.9375 9.796875 2.980469 C 9.753906 3.007812 9.71875 3.046875 9.71875 3.066406 C 9.71875 3.085938 9.664062 3.484375 9.59375 3.949219 C 9.527344 4.414062 9.445312 5.015625 9.410156 5.28125 C 9.375 5.546875 9.339844 5.859375 9.328125 5.972656 C 9.316406 6.085938 9.324219 6.296875 9.34375 6.441406 C 9.363281 6.585938 9.421875 6.828125 9.472656 6.984375 C 9.523438 7.140625 9.621094 7.371094 9.691406 7.5 C 9.761719 7.628906 9.875 7.8125 9.945312 7.90625 C 10.015625 8 10.160156 8.167969 10.261719 8.273438 C 10.363281 8.382812 10.578125 8.574219 10.734375 8.699219 C 10.886719 8.824219 11.066406 8.957031 11.125 8.992188 C 11.1875 9.03125 11.398438 9.117188 11.59375 9.1875 C 11.792969 9.257812 12.101562 9.351562 12.28125 9.394531 C 12.460938 9.433594 12.820312 9.484375 13.082031 9.507812 C 13.492188 9.539062 13.613281 9.535156 13.988281 9.492188 C 14.222656 9.460938 14.429688 9.449219 14.445312 9.460938 C 14.457031 9.476562 14.449219 9.632812 14.421875 9.8125 C 14.398438 9.992188 14.355469 10.261719 14.332031 10.40625 C 14.308594 10.550781 14.273438 10.710938 14.253906 10.761719 C 14.234375 10.808594 14.21875 10.859375 14.21875 10.878906 C 14.21875 10.894531 14.226562 10.90625 14.230469 10.90625 Z M 10.101562 2.75 C 10.132812 2.75 10.15625 2.730469 10.15625 2.710938 C 10.15625 2.6875 10.140625 2.652344 10.117188 2.632812 C 10.097656 2.609375 10.046875 2.59375 10 2.59375 C 9.957031 2.59375 9.902344 2.609375 9.875 2.625 C 9.839844 2.648438 9.851562 2.664062 9.9375 2.699219 C 9.996094 2.726562 10.070312 2.75 10.101562 2.75 Z M 10.394531 2.3125 C 10.398438 2.3125 10.636719 2.25 10.925781 2.175781 C 11.214844 2.101562 11.492188 2.03125 11.539062 2.019531 C 11.59375 2.007812 11.625 1.976562 11.625 1.941406 C 11.625 1.910156 11.597656 1.855469 11.5625 1.820312 C 11.527344 1.78125 11.460938 1.75 11.414062 1.75 C 11.371094 1.75 11.171875 1.792969 10.972656 1.847656 C 10.773438 1.902344 10.523438 1.980469 10.414062 2.023438 C 10.304688 2.066406 10.21875 2.109375 10.21875 2.117188 C 10.21875 2.128906 10.257812 2.175781 10.304688 2.226562 C 10.347656 2.273438 10.390625 2.3125 10.394531 2.3125 Z M 11.839844 1.96875 C 11.859375 1.96875 11.875 1.9375 11.875 1.894531 C 11.875 1.855469 11.839844 1.785156 11.796875 1.738281 C 11.757812 1.695312 11.699219 1.65625 11.671875 1.65625 C 11.648438 1.65625 11.625 1.683594 11.625 1.714844 C 11.625 1.75 11.664062 1.820312 11.714844 1.871094 C 11.765625 1.925781 11.820312 1.96875 11.839844 1.96875 Z M 15.433594 1.9375 C 15.484375 1.9375 15.578125 1.914062 15.644531 1.882812 C 15.710938 1.855469 15.773438 1.835938 15.785156 1.835938 C 15.796875 1.839844 15.800781 1.8125 15.789062 1.78125 C 15.78125 1.738281 15.738281 1.714844 15.660156 1.703125 C 15.597656 1.691406 15.398438 1.65625 15.21875 1.621094 C 15.039062 1.585938 14.804688 1.550781 14.699219 1.539062 C 14.523438 1.523438 14.503906 1.527344 14.46875 1.59375 C 14.449219 1.628906 14.441406 1.695312 14.449219 1.734375 C 14.464844 1.792969 14.503906 1.816406 14.632812 1.84375 C 14.722656 1.863281 14.898438 1.890625 15.019531 1.898438 C 15.167969 1.910156 15.25 1.902344 15.261719 1.878906 C 15.273438 1.859375 15.296875 1.84375 15.3125 1.84375 C 15.332031 1.84375 15.34375 1.863281 15.34375 1.890625 C 15.34375 1.921875 15.375 1.9375 15.433594 1.9375 Z M 15.433594 1.9375 "/>
</g>
</svg>
